#!OML:ASF H:\GeneralSubjects\Female5\Project 1\Capture day 1\Session 1\Female5.ASF
:FULLY-SPECIFIED
:DEGREES
243
root -23.7866 15.6107 1.05527 -83.785 81.8095 278.906
lowerback -0.882078 2.79417 8.24583
upperback -12.925 5.1924 1.29585
thorax -13.0988 1.9782 -3.72141
lowerneck -14.9539 -0.22288 6.73155
upperneck 51.5393 3.97629 -3.83232
head 27.7403 4.09249 -1.97081
rclavicle -4.57205e-014 -2.78299e-015
rhumerus 43.5486 -48.7413 -76.5091
rradius 135.059
rwrist -68.0416
rhand -19.5461 -8.23661
rfingers 7.12502
rthumb 6.77798 -38.1081
lclavicle -4.57205e-014 -2.78299e-015
lhumerus -54.5974 19.1258 49.3215
lradius 31.0415
lwrist -7.1451
lhand -17.713 36.9314
lfingers 7.12502
lthumb 8.54731 66.7384
rfemur 17.6426 11.086 42.8264
rtibia 3.18543
rfoot -22.1746 -11.3009
rtoes -12.7576
lfemur -8.91366 -16.1171 -7.823
ltibia 23.1413
lfoot -18.3176 18.061
ltoes -72.9291
244
root -23.7884 15.5845 1.07529 -79.561 81.6859 283.491
lowerback -1.10732 2.75552 8.1525
upperback -12.9266 5.104 1.292
thorax -12.9746 1.95099 -3.65056
lowerneck -14.82 0.206583 7.55735
upperneck 51.4177 4.3385 -3.81368
head 27.6191 4.38606 -2.03196
rclavicle -3.77691e-015 1.51076e-014
rhumerus 42.0228 -50.1138 -74.263
rradius 136.384
rwrist -68.6786
rhand -19.1002 -7.98006
rfingers 7.12502
rthumb 7.2084 -37.8373
lclavicle -3.77691e-015 1.51076e-014
lhumerus -54.3123 18.6369 49.8305
lradius 31.1698
lwrist -6.75517
lhand -17.6678 37.0143
lfingers 7.12502
lthumb 8.59096 66.8195
rfemur 17.5748 10.6851 42.6881
rtibia 3.97343
rfoot -22.2958 -10.1595
rtoes -11.8319
lfemur -8.52235 -15.4744 -7.97053
ltibia 24.0788
lfoot -19.5804 17.2912
ltoes -72.8427
245
root -23.7956 15.5576 1.09646 -75.2235 81.5786 288.209
lowerback -1.29859 2.71276 7.97978
upperback -12.8611 4.99314 1.26559
thorax -12.793 1.92012 -3.55882
lowerneck -14.9189 0.612158 8.57045
upperneck 51.1646 4.57619 -3.99426
head 27.4754 4.63164 -2.29838
rclavicle 6.55989e-015 7.95139e-015
rhumerus 39.2229 -50.3674 -70.7563
rradius 137.36
rwrist -67.7
rhand -19.5693 -7.68081
rfingers 7.12502
rthumb 6.75564 -37.553
lclavicle 6.55989e-015 7.95139e-015
lhumerus -53.9004 18.1086 50.4387
lradius 31.2473
lwrist -6.57143
lhand -17.5075 37.1372
lfingers 7.12502
lthumb 8.7456 66.936
rfemur 17.5371 10.3633 42.5087
rtibia 4.68974
rfoot -22.3208 -9.21494
rtoes -11.6013
lfemur -8.03018 -15.5944 -8.05715
ltibia 24.2384
lfoot -19.7407 17.7858
ltoes -72.5781
246
root -23.8063 15.5323 1.11707 -70.9704 81.4255 292.849
lowerback -1.46915 2.66401 7.83091
upperback -12.7502 4.8681 1.22006
thorax -12.5679 1.87861 -3.49971
lowerneck -15.2201 0.979432 9.72226
upperneck 50.8002 4.68344 -4.36065
head 27.3167 4.81936 -2.75001
rclavicle 9.34288e-015 1.35174e-014
rhumerus 35.8075 -49.6768 -66.8631
rradius 138.001
rwrist -65.2063
rhand -20.8224 -7.70031
rfingers 7.12502
rthumb 5.54585 -37.6077
lclavicle 9.34288e-015 1.35174e-014
lhumerus -53.3519 17.364 51.1756
lradius 31.257
lwrist -6.44625
lhand -17.5455 37.4661
lfingers 7.12502
lthumb 8.70899 67.2664
rfemur 17.5231 10.0076 42.293
rtibia 5.33209
rfoot -22.0947 -8.37636
rtoes -11.5537
lfemur -7.62603 -15.4905 -8.1931
ltibia 24.6619
lfoot -19.9162 18.0401
ltoes -72.3581
247
root -23.8234 15.5078 1.14038 -66.8792 81.1813 297.324
lowerback -1.593 2.62407 7.73412
upperback -12.6199 4.76109 1.18012
thorax -12.3449 1.83946 -3.46723
lowerneck -15.4492 1.43997 10.6571
upperneck 50.4558 4.85983 -4.3207
head 27.1044 5.01904 -2.86995
rclavicle -6.36111e-015 -7.55382e-015
rhumerus 32.2877 -48.564 -63.0008
rradius 138.298
rwrist -62.4517
rhand -21.682 -7.36495
rfingers 7.12502
rthumb 4.71588 -37.2925
lclavicle -6.36111e-015 -7.55382e-015
lhumerus -52.7795 16.6369 51.8179
lradius 31.2669
lwrist -6.2357
lhand -17.689 37.8682
lfingers 7.12502
lthumb 8.57046 67.6742
rfemur 17.5314 9.77355 42.1922
rtibia 5.92712
rfoot -21.8387 -7.81109
rtoes -12.3708
lfemur -7.628 -12.309 -8.78055
ltibia 30.0471
lfoot -26.0981 12.4988
ltoes -73.3191
248
root -23.8499 15.4831 1.16395 -62.9275 80.8386 301.628
lowerback -1.65226 2.60124 7.77083
upperback -12.5098 4.69286 1.1214
thorax -12.1754 1.80092 -3.53658
lowerneck -15.4847 2.07693 11.2095
upperneck 50.188 5.25401 -3.61245
head 26.831 5.28681 -2.42085
rclavicle -5.56597e-015 -5.64548e-014
rhumerus 28.9939 -47.1421 -59.3995
rradius 138.319
rwrist -59.7774
rhand -22.1676 -6.25658
rfingers 7.12502
rthumb 4.24693 -36.194
lclavicle -5.56597e-015 -5.64548e-014
lhumerus -52.2205 15.9423 52.3094
lradius 31.2387
lwrist -6.0783
lhand -17.7046 37.9263
lfingers 7.12502
lthumb 8.55537 67.733
rfemur 17.4616 9.56888 42.132
rtibia 6.50918
rfoot -21.6766 -7.2749
rtoes -13.9323
lfemur -7.33266 -12.9776 -8.84395
ltibia 30.083
lfoot -25.5233 13.7169
ltoes -72.9219
249
root -23.8813 15.4579 1.18651 -59.2062 80.4576 305.614
lowerback -1.71476 2.58298 7.87951
upperback -12.4609 4.64137 1.02686
thorax -12.0703 1.75879 -3.68811
lowerneck -15.5694 2.64705 11.7556
upperneck 49.93 5.54827 -2.9644
head 26.5935 5.51562 -2.04309
rclavicle -5.1684e-015 7.15625e-015
rhumerus 26.2627 -45.7805 -56.7554
rradius 138.328
rwrist -57.7235
rhand -22.2559 -5.46618
rfingers 7.12502
rthumb 4.16164 -35.4053
lclavicle -5.1684e-015 7.15625e-015
lhumerus -51.688 15.1546 52.7171
lradius 31.156
lwrist -6.01561
lhand -17.7615 38.3856
lfingers 7.12502
lthumb 8.50047 68.1945
rfemur 17.3007 9.32134 42.0175
rtibia 7.03892
rfoot -21.4122 -6.53846
rtoes -14.1282
lfemur -7.18625 -13.9104 -8.74691
ltibia 29.5878
lfoot -24.3927 15.5249
ltoes -72.4143
